<svg xmlns="http://www.w3.org/2000/svg" viewBox="0 0 1200 800" preserveAspectRatio="xMidYMid slice">
  <defs>
    <linearGradient id="heroGradient" x1="0%" y1="0%" x2="100%" y2="100%">
      <stop offset="0%" stop-color="#0b3b8f" />
      <stop offset="55%" stop-color="#0e4fa3" />
      <stop offset="100%" stop-color="#123a7b" />
    </linearGradient>
    <linearGradient id="containerGradient" x1="0%" y1="0%" x2="0%" y2="100%">
      <stop offset="0%" stop-color="#1d65d9" />
      <stop offset="100%" stop-color="#0b3c8f" />
    </linearGradient>
    <linearGradient id="containerGradientOrange" x1="0%" y1="0%" x2="0%" y2="100%">
      <stop offset="0%" stop-color="#ff9a3d" />
      <stop offset="100%" stop-color="#f36a16" />
    </linearGradient>
    <linearGradient id="containerGradientTeal" x1="0%" y1="0%" x2="0%" y2="100%">
      <stop offset="0%" stop-color="#1aa8b3" />
      <stop offset="100%" stop-color="#117a83" />
    </linearGradient>
  </defs>
  <rect width="1200" height="800" fill="url(#heroGradient)" />
  <g opacity="0.75">
    <rect x="80" y="460" width="220" height="110" rx="12" fill="url(#containerGradient)" />
    <rect x="330" y="420" width="220" height="140" rx="12" fill="url(#containerGradientOrange)" />
    <rect x="580" y="470" width="220" height="130" rx="12" fill="url(#containerGradientTeal)" />
    <rect x="830" y="430" width="220" height="150" rx="12" fill="url(#containerGradient)" />
    <rect x="180" y="560" width="220" height="120" rx="12" fill="url(#containerGradientTeal)" />
    <rect x="430" y="550" width="220" height="120" rx="12" fill="url(#containerGradient)" />
    <rect x="680" y="580" width="220" height="110" rx="12" fill="url(#containerGradientOrange)" />
    <rect x="930" y="560" width="220" height="120" rx="12" fill="url(#containerGradientTeal)" />
  </g>
  <g opacity="0.25">
    <rect x="60" y="120" width="280" height="140" rx="16" fill="#ffffff" />
    <rect x="370" y="80" width="300" height="180" rx="16" fill="#ffffff" />
    <rect x="710" y="130" width="320" height="160" rx="16" fill="#ffffff" />
  </g>
  <g opacity="0.12">
    <rect x="90" y="270" width="180" height="20" fill="#ffffff" />
    <rect x="360" y="260" width="200" height="20" fill="#ffffff" />
    <rect x="650" y="250" width="220" height="20" fill="#ffffff" />
    <rect x="920" y="240" width="180" height="20" fill="#ffffff" />
  </g>
</svg>
